<?xml version="1.0" encoding="UTF-8" standalone="no"?>
<!DOCTYPE svg PUBLIC "-//W3C//DTD SVG 1.1//EN" "http://www.w3.org/Graphics/SVG/1.1/DTD/svg11.dtd">
<svg width="100%" height="100%" viewBox="0 0 50 50" version="1.1" xmlns="http://www.w3.org/2000/svg" xmlns:xlink="http://www.w3.org/1999/xlink" xml:space="preserve" xmlns:serif="http://www.serif.com/" style="fill-rule:evenodd;clip-rule:evenodd;stroke-linejoin:round;stroke-miterlimit:2;">
    <g transform="matrix(1.03968,0,0,1.03968,0.177729,1)">
        <path d="M31,24.25L29.52,21.69C29.426,21.533 29.234,21.461 29.06,21.52L27.22,22.27C26.849,21.971 26.439,21.725 26,21.54L25.72,19.54C25.691,19.364 25.539,19.232 25.36,19.23L22.36,19.23C22.181,19.232 22.029,19.364 22,19.54L21.72,21.54C21.269,21.726 20.845,21.971 20.46,22.27L18.62,21.52C18.447,21.453 18.248,21.526 18.16,21.69L16.68,24.25C16.586,24.409 16.624,24.616 16.77,24.73L18.36,26C18.293,26.484 18.293,26.976 18.36,27.46L16.8,28.63C16.658,28.747 16.62,28.95 16.71,29.11L18.19,31.67C18.284,31.827 18.476,31.899 18.65,31.84L20.49,31.09C20.873,31.392 21.297,31.638 21.75,31.82L22.03,33.82C22.059,33.996 22.211,34.128 22.39,34.13L25.39,34.13C25.569,34.128 25.721,33.996 25.75,33.82L26.03,31.82C26.481,31.634 26.905,31.389 27.29,31.09L29.13,31.84C29.303,31.907 29.502,31.834 29.59,31.67L31,29.11C31.09,28.95 31.052,28.747 30.91,28.63L29.35,27.41C29.417,26.926 29.417,26.434 29.35,25.95L31,24.73C31.113,24.591 31.113,24.389 31,24.25ZM23.84,29.25L23.83,29.25C22.404,29.25 21.23,28.076 21.23,26.65C21.23,25.224 22.404,24.05 23.83,24.05C25.256,24.05 26.43,25.224 26.43,26.65C26.447,28.069 25.299,29.253 23.88,29.28L23.84,29.25Z" style="fill-rule:nonzero;"/>
    </g>
    <g transform="matrix(1.03968,0,0,1.03968,0.177729,1)">
        <path d="M0,32.72L0,41.35L7.47,45.66L14.94,41.35L14.94,32.72L7.47,28.41L0,32.72ZM2,34.45L7,37.33L7,43.07L2,40.2L2,34.45ZM12.94,40.2L8,43.07L8,37.32L13,34.45L12.94,40.2ZM7.47,36.46L2.47,33.59L7.47,30.72L12.47,33.59L7.47,36.46Z" style="fill-rule:nonzero;"/>
    </g>
    <g transform="matrix(1.03968,0,0,1.03968,0.177729,1)">
        <path d="M40.27,28.41L32.8,32.72L32.8,41.35L40.27,45.66L47.75,41.35L47.75,32.72L40.27,28.41ZM40.27,30.72L45.27,33.59L40.27,36.46L35.27,33.59L40.27,30.72ZM34.8,34.45L39.8,37.33L39.8,43.07L34.8,40.2L34.8,34.45ZM45.8,40.2L40.8,43.07L40.8,37.32L45.8,34.45L45.8,40.2Z" style="fill-rule:nonzero;"/>
    </g>
    <g transform="matrix(1.03968,0,0,1.03968,0.177729,1)">
        <path d="M16.4,4.31L16.4,12.94L23.87,17.26L31.35,12.94L31.35,4.31L23.87,0L16.4,4.31ZM18.4,6.05L23.4,8.92L23.4,14.66L18.4,11.79L18.4,6.05ZM29.4,11.79L24.4,14.66L24.4,8.92L29.4,6.04L29.4,11.79ZM23.87,8.05L18.87,5.18L23.87,2.31L28.87,5.18L23.87,8.05Z" style="fill-rule:nonzero;"/>
    </g>
</svg>
