<?xml version="1.0" encoding="UTF-8" standalone="no"?>
<!DOCTYPE svg PUBLIC "-//W3C//DTD SVG 1.1//EN" "http://www.w3.org/Graphics/SVG/1.1/DTD/svg11.dtd">
<svg width="100%" height="100%" viewBox="0 0 50 50" version="1.1" xmlns="http://www.w3.org/2000/svg" xmlns:xlink="http://www.w3.org/1999/xlink" xml:space="preserve" xmlns:serif="http://www.serif.com/" style="fill-rule:evenodd;clip-rule:evenodd;stroke-linejoin:round;stroke-miterlimit:2;">
    <g transform="matrix(0.601308,0,0,0.601308,-5.06542,-5.06542)">
        <path d="M88.67,61.502L80.532,46.606C80.34,46.256 80.11,45.942 79.865,45.645L79.865,19.924C79.859,13.588 74.7,8.43 68.365,8.424L20.635,8.424C14.299,8.43 9.141,13.588 9.135,19.924L9.135,67.654C9.141,73.989 14.299,79.148 20.635,79.154L33.949,79.154C34.394,79.483 34.883,79.765 35.426,79.972L35.425,79.974L35.453,79.986L35.454,79.986L59.114,89.411C61.94,90.834 65.126,91.575 68.402,91.576C72.04,91.576 75.791,90.662 79.283,88.756C86.579,84.766 90.859,77.488 90.865,70.156C90.866,67.195 90.16,64.226 88.67,61.502ZM14.633,73.656C13.087,72.108 12.135,69.99 12.135,67.654L12.135,19.924C12.135,17.587 13.087,15.469 14.633,13.922C16.18,12.377 18.298,11.424 20.635,11.424L68.365,11.424C70.701,11.424 72.819,12.377 74.367,13.922C75.912,15.469 76.865,17.587 76.865,19.924L76.865,43.65C76.281,43.474 75.676,43.375 75.063,43.375C74.06,43.375 73.037,43.619 72.098,44.131C71.065,44.697 70.257,45.516 69.707,46.467L69.54,46.163L69.542,46.165C68.413,44.097 66.271,42.928 64.073,42.929C63.071,42.928 62.046,43.172 61.106,43.688C60.59,43.969 60.162,44.353 59.823,44.782C59.313,45.428 58.993,46.167 58.789,46.927C58.771,46.993 58.767,47.064 58.751,47.131C57.647,46.267 56.284,45.796 54.895,45.797C53.892,45.796 52.867,46.041 51.927,46.556C50.896,47.12 50.089,47.939 49.54,48.888L43.95,38.656C42.818,36.593 40.679,35.424 38.479,35.424C37.477,35.424 36.452,35.668 35.512,36.184L35.514,36.183C33.45,37.314 32.282,39.454 32.284,41.65C32.284,42.653 32.528,43.675 33.039,44.613L33.04,44.615L47.618,71.3L39.809,68.345L39.802,68.343C39.094,68.078 38.361,67.95 37.64,67.951C35.119,67.951 32.742,69.489 31.805,71.989C31.803,71.994 31.804,72 31.802,72.005C31.539,72.71 31.414,73.439 31.414,74.154C31.414,74.842 31.538,75.516 31.756,76.157L20.635,76.157C18.298,76.154 16.18,75.201 14.633,73.656ZM77.846,86.123C74.795,87.789 71.539,88.575 68.403,88.575C65.546,88.576 62.79,87.923 60.383,86.693L60.256,86.636L36.535,77.187L36.506,77.175C35.221,76.698 34.416,75.453 34.416,74.151C34.416,73.781 34.48,73.408 34.617,73.04C34.618,73.038 34.617,73.035 34.617,73.035C34.858,72.39 35.281,71.875 35.816,71.512C36.349,71.149 36.992,70.948 37.641,70.949C38.01,70.949 38.383,71.012 38.751,71.15L50.347,75.538C50.935,75.761 51.595,75.595 52.009,75.119C52.422,74.644 52.495,73.968 52.194,73.415L35.674,43.177C35.408,42.689 35.284,42.169 35.284,41.649C35.285,40.503 35.891,39.392 36.954,38.814L36.956,38.813C37.44,38.547 37.958,38.424 38.479,38.423C39.625,38.424 40.739,39.034 41.317,40.095L49.453,54.989C49.458,54.997 49.464,55.004 49.468,55.011L54.429,64.093C54.825,64.82 55.738,65.087 56.464,64.69C57.192,64.293 57.458,63.381 57.062,62.654L52.079,53.531C51.822,53.047 51.699,52.537 51.699,52.025C51.701,50.877 52.307,49.765 53.367,49.189C53.855,48.921 54.374,48.798 54.895,48.798C56.035,48.798 57.139,49.4 57.724,50.456L62.706,59.571C63.102,60.298 64.015,60.565 64.741,60.167C65.468,59.771 65.735,58.858 65.339,58.132L62.189,52.368C62.187,52.365 62.187,52.362 62.185,52.359C62.181,52.352 62.179,52.344 62.175,52.338L62.175,52.337C61.792,51.658 61.491,50.427 61.5,49.273C61.498,48.519 61.619,47.796 61.827,47.274C61.93,47.011 62.051,46.8 62.174,46.646C62.298,46.491 62.419,46.39 62.548,46.32C63.032,46.054 63.552,45.931 64.073,45.931C65.22,45.931 66.331,46.538 66.907,47.601L66.908,47.603L69.622,52.568C69.624,52.573 69.628,52.576 69.631,52.582L71.882,56.704C72.278,57.432 73.191,57.699 73.917,57.303C74.644,56.905 74.911,55.994 74.515,55.266L72.251,51.12C71.991,50.636 71.868,50.119 71.868,49.603C71.868,48.454 72.475,47.341 73.535,46.766C74.021,46.5 74.541,46.377 75.062,46.376C76.208,46.378 77.32,46.984 77.899,48.046L86.036,62.942C87.276,65.213 87.863,67.67 87.864,70.158C87.871,76.31 84.225,82.641 77.846,86.123Z" style="fill-rule:nonzero;"/>
    </g>
</svg>
