<?xml version="1.0" encoding="UTF-8" standalone="no"?>
<!DOCTYPE svg PUBLIC "-//W3C//DTD SVG 1.1//EN" "http://www.w3.org/Graphics/SVG/1.1/DTD/svg11.dtd">
<svg width="100%" height="100%" viewBox="0 0 50 50" version="1.1" xmlns="http://www.w3.org/2000/svg" xmlns:xlink="http://www.w3.org/1999/xlink" xml:space="preserve" xmlns:serif="http://www.serif.com/" style="fill-rule:evenodd;clip-rule:evenodd;stroke-linejoin:round;stroke-miterlimit:2;">
    <g transform="matrix(0.526086,0,0,0.526086,-1.94652,-1.31522)">
        <path d="M19.8,51.8C18.8,51.8 18.1,52.6 18.1,53.5L18.1,61C18.1,62 18.9,62.7 19.8,62.7L25.2,62.7C26.2,62.7 26.9,61.9 26.9,61L26.9,53.6C26.9,52.6 26.1,51.9 25.2,51.9L19.8,51.9L19.8,51.8Z" style="fill-rule:nonzero;"/>
        <path d="M32.6,46.1C31.6,46.1 30.9,46.9 30.9,47.8L30.9,61C30.9,62 31.7,62.7 32.6,62.7L38,62.7C39,62.7 39.7,61.9 39.7,61L39.7,47.8C39.7,46.8 38.9,46.1 38,46.1L32.6,46.1Z" style="fill-rule:nonzero;"/>
        <path d="M44.6,35.9L58.2,22.3L58.2,26.7C58.2,28 59.2,29 60.5,29C61.8,29 62.8,28 62.8,26.7L62.8,16.8C62.8,15.5 61.8,14.5 60.5,14.5L50.6,14.5C49.3,14.5 48.3,15.5 48.3,16.8C48.3,18.1 49.3,19.1 50.6,19.1L55,19.1L43,31L37.4,25.4C36.5,24.5 35,24.5 34.1,25.4L18.9,40.6C18,41.5 18,43 18.9,43.9C19.4,44.4 19.9,44.6 20.5,44.6C21.1,44.6 21.7,44.4 22.1,43.9L35.6,30.4L41.2,36C42.2,36.8 43.7,36.8 44.6,35.9Z" style="fill-rule:nonzero;"/>
        <path d="M52.6,42C52.6,41 51.8,40.2 50.9,40.2L45.5,40.2C44.5,40.2 43.8,41 43.8,42L43.8,61C43.8,62 44.6,62.7 45.5,62.7L46.7,62.7C47.9,59.1 50,56 52.6,53.4L52.6,42Z" style="fill-rule:nonzero;"/>
        <path d="M65.5,36.2C65.5,35.2 64.7,34.4 63.8,34.4L58.4,34.4C57.4,34.4 56.7,35.2 56.7,36.2L56.7,50.3C59.4,48.6 62.4,47.4 65.6,46.8L65.6,36.2L65.5,36.2Z" style="fill-rule:nonzero;"/>
        <path d="M45.4,68.9L9.5,68.9L9.5,8.3L74.2,8.3L74.2,46.8C76.2,47.2 78.2,47.8 80,48.6L80,8C80,5 77.5,2.5 74.5,2.5L9.2,2.5C6.2,2.5 3.7,5 3.7,8L3.7,69.1C3.7,72.1 6.2,74.6 9.2,74.6L45.6,74.6C45.4,73.4 45.3,72.2 45.3,70.9C45.3,70.3 45.3,69.6 45.4,68.9Z" style="fill-rule:nonzero;"/>
        <path d="M94.5,88.5L85.2,80.9C87,78 88.1,74.7 88.1,71C88.1,60.9 79.9,52.7 69.8,52.7C59.7,52.7 51.6,60.9 51.6,71C51.6,81.1 59.8,89.3 69.9,89.3C73.5,89.3 76.9,88.2 79.8,86.4L87.4,95.7C87.6,96 87.9,96.2 88.1,96.4C90.3,98.2 93.5,97.8 95.3,95.7C97,93.5 96.6,90.3 94.5,88.5ZM57.9,71C57.9,64.4 63.2,59.1 69.8,59.1C76.4,59.1 81.7,64.4 81.7,71C81.7,77.6 76.4,82.9 69.8,82.9C63.2,82.9 57.9,77.6 57.9,71Z" style="fill-rule:nonzero;"/>
    </g>
</svg>
