<?xml version="1.0" encoding="UTF-8" standalone="no"?>
<!DOCTYPE svg PUBLIC "-//W3C//DTD SVG 1.1//EN" "http://www.w3.org/Graphics/SVG/1.1/DTD/svg11.dtd">
<svg width="100%" height="100%" viewBox="0 0 50 50" version="1.1" xmlns="http://www.w3.org/2000/svg" xmlns:xlink="http://www.w3.org/1999/xlink" xml:space="preserve" xmlns:serif="http://www.serif.com/" style="fill-rule:evenodd;clip-rule:evenodd;stroke-linejoin:round;stroke-miterlimit:2;">
    <g transform="matrix(1,0,0,1,-7,-15)">
        <g transform="matrix(0.896327,0,0,0.896327,3.31753,10.5006)">
            <path d="M40,17.02L24,17.02C22.903,17.018 22.001,16.116 22,15.02L22,7.02C22.001,5.923 22.903,5.021 24,5.02L26,5.02C26.549,5.02 27,5.471 27,6.02C27,6.568 26.549,7.02 26,7.02L24,7.02L24,15.02L40,15.02L40,7.02L31,7.02C30.451,7.02 30,6.568 30,6.02C30,5.471 30.451,5.02 31,5.02L40,5.02C41.097,5.021 41.999,5.923 42,7.02L42,15.02C41.999,16.116 41.097,17.018 40,17.02Z" style="fill-rule:nonzero;"/>
        </g>
        <g transform="matrix(0.896327,0,0,0.896327,3.31753,10.5006)">
            <path d="M28,14.073C26.354,14.073 25,12.718 25,11.073C25,9.427 26.354,8.073 28,8.073C29.646,8.073 31,9.427 31,11.073C30.998,12.718 29.645,14.071 28,14.073ZM28,10.073C27.451,10.073 27,10.524 27,11.073C27,11.621 27.451,12.073 28,12.073C28.549,12.073 29,11.621 29,11.073C29,10.524 28.548,10.073 28,10.073Z" style="fill-rule:nonzero;"/>
        </g>
        <g transform="matrix(0.896327,0,0,0.896327,3.31753,10.5006)">
            <path d="M36,14.073C34.354,14.073 33,12.718 33,11.073C33,9.427 34.354,8.073 36,8.073C37.646,8.073 39,9.427 39,11.073C38.998,12.718 37.645,14.071 36,14.073ZM36,10.073C35.451,10.073 35,10.524 35,11.073C35,11.621 35.451,12.073 36,12.073C36.549,12.073 37,11.621 37,11.073C37,10.524 36.548,10.073 36,10.073Z" style="fill-rule:nonzero;"/>
        </g>
        <g transform="matrix(0.896327,0,0,0.896327,3.31753,10.5006)">
            <path d="M20.358,25.462C20.199,25.28 20.111,25.046 20.111,24.804C20.111,24.255 20.563,23.804 21.111,23.804C21.393,23.804 21.661,23.922 21.851,24.13C24.68,27.437 28.943,29.176 33.278,28.791C33.309,28.789 33.34,28.787 33.371,28.787C33.919,28.787 34.371,29.239 34.371,29.787C34.371,30.296 33.983,30.727 33.478,30.782C28.506,31.235 23.611,29.25 20.358,25.462Z" style="fill-rule:nonzero;"/>
        </g>
        <g transform="matrix(0.896327,0,0,0.896327,3.31753,10.5006)">
            <path d="M36.244,28.135C36.482,28.053 36.72,27.963 36.954,27.867C37.073,27.819 37.2,27.794 37.328,27.794C37.877,27.794 38.328,28.245 38.328,28.794C38.328,29.194 38.087,29.558 37.718,29.714C37.446,29.826 37.174,29.93 36.898,30.026C36.794,30.061 36.685,30.079 36.575,30.079C36.027,30.079 35.575,29.628 35.575,29.079C35.575,28.655 35.844,28.275 36.244,28.135Z" style="fill-rule:nonzero;"/>
        </g>
        <g transform="matrix(0.896327,0,0,0.896327,3.31753,10.5006)">
            <path d="M39.557,26.44C40.508,25.774 41.378,24.998 42.149,24.13C42.339,23.922 42.608,23.803 42.889,23.803C43.438,23.803 43.889,24.254 43.889,24.803C43.889,25.046 43.801,25.28 43.642,25.462C42.767,26.446 41.78,27.325 40.701,28.08C40.535,28.194 40.338,28.256 40.136,28.256C39.587,28.256 39.135,27.804 39.135,27.255C39.135,26.932 39.293,26.627 39.557,26.44Z" style="fill-rule:nonzero;"/>
        </g>
        <g transform="matrix(0.896327,0,0,0.896327,3.31753,10.5006)">
            <path d="M24.956,24.304C24.327,23.821 23.744,23.279 23.216,22.687C23.056,22.504 22.968,22.27 22.968,22.028C22.968,21.479 23.419,21.028 23.968,21.028C24.25,21.028 24.519,21.146 24.708,21.355C25.152,21.854 25.641,22.31 26.171,22.716C26.413,22.905 26.555,23.196 26.555,23.504C26.555,24.052 26.104,24.503 25.555,24.503C25.339,24.503 25.129,24.433 24.956,24.304Z" style="fill-rule:nonzero;"/>
        </g>
        <g transform="matrix(0.896327,0,0,0.896327,3.31753,10.5006)">
            <path d="M31.876,26.687C30.635,26.685 29.402,26.477 28.23,26.07C27.827,25.931 27.556,25.55 27.556,25.124C27.556,24.576 28.007,24.124 28.556,24.124C28.667,24.124 28.777,24.143 28.882,24.179C32.512,25.403 36.542,24.278 39.014,21.352C39.203,21.144 39.472,21.025 39.753,21.025C40.302,21.025 40.753,21.477 40.753,22.026C40.753,22.268 40.665,22.502 40.506,22.684C38.339,25.194 35.192,26.654 31.876,26.687Z" style="fill-rule:nonzero;"/>
        </g>
        <g transform="matrix(0.896327,0,0,0.896327,3.31753,10.5006)">
            <path d="M31.985,22.456C29.905,22.445 27.929,21.533 26.57,19.958C26.411,19.776 26.323,19.542 26.323,19.3C26.323,18.751 26.775,18.3 27.323,18.3C27.605,18.3 27.873,18.419 28.063,18.626C29.035,19.786 30.473,20.456 31.986,20.456C33.5,20.456 34.939,19.785 35.911,18.623C36.101,18.415 36.37,18.296 36.651,18.296C37.2,18.296 37.651,18.748 37.651,19.296C37.651,19.539 37.563,19.773 37.403,19.955C36.044,21.531 34.067,22.444 31.985,22.456Z" style="fill-rule:nonzero;"/>
        </g>
        <g transform="matrix(0.896327,0,0,0.896327,3.31753,10.5006)">
            <path d="M57.892,57.073L49.892,57.073C48.795,57.071 47.893,56.169 47.892,55.073L47.892,39.073C47.893,37.976 48.795,37.074 49.892,37.073L57.892,37.073C58.988,37.074 59.89,37.976 59.892,39.073L59.892,55.073C59.89,56.169 58.988,57.071 57.892,57.073ZM49.892,39.073L49.892,55.074L57.892,55.073L57.892,39.073L49.892,39.073Z" style="fill-rule:nonzero;"/>
        </g>
        <g transform="matrix(0.896327,0,0,0.896327,3.31753,10.5006)">
            <path d="M53.892,46.073C52.246,46.073 50.892,44.718 50.892,43.073C50.892,41.427 52.246,40.073 53.892,40.073C55.537,40.073 56.892,41.427 56.892,43.073C56.89,44.718 55.537,46.071 53.892,46.073ZM53.892,42.073C53.343,42.073 52.892,42.524 52.892,43.073C52.892,43.621 53.343,44.073 53.892,44.073C54.44,44.073 54.892,43.621 54.892,43.073C54.891,42.524 54.44,42.073 53.892,42.073Z" style="fill-rule:nonzero;"/>
        </g>
        <g transform="matrix(0.896327,0,0,0.896327,3.31753,10.5006)">
            <path d="M53.892,54.073C52.246,54.073 50.892,52.718 50.892,51.073C50.892,49.427 52.246,48.073 53.892,48.073C55.537,48.073 56.892,49.427 56.892,51.073C56.89,52.718 55.537,54.071 53.892,54.073ZM53.892,50.073C53.343,50.073 52.892,50.524 52.892,51.073C52.892,51.621 53.343,52.073 53.892,52.073C54.44,52.073 54.892,51.621 54.892,51.073C54.891,50.524 54.44,50.073 53.892,50.073Z" style="fill-rule:nonzero;"/>
        </g>
        <g transform="matrix(0.896327,0,0,0.896327,3.31753,10.5006)">
            <path d="M34.183,48.549C33.73,43.578 35.714,38.683 39.501,35.431C39.683,35.271 39.918,35.183 40.16,35.183C40.709,35.183 41.16,35.635 41.16,36.183C41.16,36.465 41.041,36.734 40.833,36.923C37.526,39.752 35.787,44.015 36.173,48.35C36.176,48.382 36.177,48.413 36.177,48.445C36.177,48.994 35.726,49.445 35.177,49.445C34.668,49.445 34.236,49.056 34.183,48.549Z" style="fill-rule:nonzero;"/>
        </g>
        <g transform="matrix(0.896327,0,0,0.896327,3.31753,10.5006)">
            <path d="M35.249,52.79C35.137,52.519 35.033,52.246 34.937,51.971C34.903,51.868 34.885,51.76 34.885,51.652C34.885,51.103 35.337,50.652 35.886,50.652C36.308,50.652 36.687,50.919 36.828,51.317C36.91,51.555 37,51.792 37.097,52.027C37.145,52.146 37.169,52.273 37.169,52.401C37.169,52.949 36.718,53.4 36.17,53.4C35.769,53.4 35.405,53.159 35.249,52.79Z" style="fill-rule:nonzero;"/>
        </g>
        <g transform="matrix(0.896327,0,0,0.896327,3.31753,10.5006)">
            <path d="M39.501,58.713C38.517,57.839 37.638,56.852 36.883,55.774C36.769,55.607 36.708,55.41 36.708,55.209C36.708,54.66 37.159,54.208 37.708,54.208C38.032,54.208 38.336,54.365 38.523,54.629C39.19,55.58 39.965,56.45 40.833,57.221C41.041,57.41 41.16,57.679 41.16,57.96C41.16,58.509 40.708,58.961 40.16,58.961C39.917,58.961 39.683,58.873 39.501,58.713Z" style="fill-rule:nonzero;"/>
        </g>
        <g transform="matrix(0.896327,0,0,0.896327,3.31753,10.5006)">
            <path d="M40.659,40.028C41.143,39.398 41.685,38.815 42.278,38.287C42.461,38.128 42.694,38.04 42.936,38.04C43.485,38.04 43.937,38.492 43.937,39.041C43.937,39.323 43.817,39.592 43.608,39.782C43.109,40.225 42.654,40.715 42.247,41.244C42.058,41.488 41.766,41.631 41.457,41.631C40.908,41.631 40.457,41.18 40.457,40.631C40.457,40.413 40.528,40.201 40.659,40.028Z" style="fill-rule:nonzero;"/>
        </g>
        <g transform="matrix(0.896327,0,0,0.896327,3.31753,10.5006)">
            <path d="M42.279,55.578C38.747,52.574 37.4,47.691 38.894,43.301C39.032,42.899 39.413,42.627 39.839,42.627C40.387,42.627 40.839,43.079 40.839,43.627C40.839,43.738 40.82,43.848 40.784,43.953C39.562,47.583 40.686,51.613 43.611,54.086C43.82,54.276 43.939,54.545 43.939,54.826C43.939,55.375 43.487,55.826 42.938,55.826C42.696,55.826 42.462,55.738 42.279,55.578Z" style="fill-rule:nonzero;"/>
        </g>
        <g transform="matrix(0.896327,0,0,0.896327,3.31753,10.5006)">
            <path d="M45.008,52.476C43.422,51.124 42.508,49.142 42.508,47.058C42.508,44.976 43.421,42.995 45.005,41.643C45.187,41.483 45.422,41.395 45.664,41.395C46.213,41.395 46.664,41.847 46.664,42.395C46.664,42.677 46.545,42.946 46.337,43.135C45.178,44.108 44.508,45.545 44.508,47.058C44.508,48.572 45.179,50.011 46.34,50.984C46.548,51.173 46.666,51.442 46.666,51.723C46.666,52.271 46.215,52.723 45.666,52.723C45.424,52.723 45.19,52.635 45.008,52.476Z" style="fill-rule:nonzero;"/>
        </g>
        <g transform="matrix(0.896327,0,0,0.896327,3.31753,10.5006)">
            <path d="M14.108,57.073L6.108,57.073C5.012,57.071 4.11,56.169 4.108,55.073L4.108,39.073C4.11,37.976 5.012,37.074 6.108,37.073L14.108,37.073C15.205,37.074 16.107,37.976 16.108,39.073L16.108,55.073C16.107,56.169 15.205,57.071 14.108,57.073ZM6.108,39.073L6.108,55.073L14.108,55.073L14.108,39.073L6.108,39.073Z" style="fill-rule:nonzero;"/>
        </g>
        <g transform="matrix(0.896327,0,0,0.896327,3.31753,10.5006)">
            <path d="M10.108,46.073C8.463,46.073 7.108,44.718 7.108,43.073C7.108,41.427 8.463,40.073 10.108,40.073C11.754,40.073 13.108,41.427 13.108,43.073C13.107,44.718 11.753,46.071 10.108,46.073ZM10.108,42.073C9.56,42.073 9.108,42.524 9.108,43.073C9.108,43.621 9.56,44.073 10.108,44.073C10.657,44.073 11.108,43.621 11.108,43.073C11.108,42.524 10.657,42.073 10.108,42.073Z" style="fill-rule:nonzero;"/>
        </g>
        <g transform="matrix(0.896327,0,0,0.896327,3.31753,10.5006)">
            <path d="M10.108,54.073C8.463,54.073 7.108,52.718 7.108,51.073C7.108,49.427 8.463,48.073 10.108,48.073C11.754,48.073 13.108,49.427 13.108,51.073C13.107,52.718 11.753,54.071 10.108,54.073ZM10.108,50.073C9.56,50.073 9.108,50.524 9.108,51.073C9.108,51.621 9.56,52.073 10.108,52.073C10.657,52.073 11.108,51.621 11.108,51.073C11.108,50.524 10.657,50.073 10.108,50.073Z" style="fill-rule:nonzero;"/>
        </g>
        <g transform="matrix(0.896327,0,0,0.896327,3.31753,10.5006)">
            <path d="M27.827,48.35C28.213,44.015 26.474,39.752 23.167,36.923C22.96,36.734 22.841,36.465 22.841,36.185C22.841,35.636 23.293,35.184 23.841,35.184C24.083,35.184 24.317,35.272 24.499,35.431C28.286,38.683 30.27,43.578 29.817,48.549C29.764,49.056 29.332,49.445 28.823,49.445C28.274,49.445 27.823,48.994 27.823,48.445C27.823,48.413 27.824,48.381 27.827,48.35Z" style="fill-rule:nonzero;"/>
        </g>
        <g transform="matrix(0.896327,0,0,0.896327,3.31753,10.5006)">
            <path d="M26.903,52.027C27,51.792 27.09,51.555 27.172,51.317C27.314,50.919 27.692,50.652 28.114,50.652C28.663,50.652 29.115,51.104 29.115,51.652C29.115,51.761 29.097,51.868 29.063,51.971C28.967,52.246 28.863,52.519 28.751,52.79C28.595,53.161 28.231,53.403 27.829,53.403C27.281,53.403 26.83,52.952 26.83,52.403C26.83,52.274 26.855,52.146 26.903,52.027Z" style="fill-rule:nonzero;"/>
        </g>
        <g transform="matrix(0.896327,0,0,0.896327,3.31753,10.5006)">
            <path d="M23.167,57.221C24.035,56.45 24.81,55.58 25.477,54.629C25.664,54.365 25.968,54.208 26.292,54.208C26.841,54.208 27.292,54.66 27.292,55.209C27.292,55.41 27.231,55.607 27.117,55.774C26.362,56.852 25.483,57.839 24.499,58.713C24.316,58.874 24.081,58.963 23.838,58.963C23.289,58.963 22.838,58.512 22.838,57.963C22.838,57.68 22.957,57.411 23.167,57.221Z" style="fill-rule:nonzero;"/>
        </g>
        <g transform="matrix(0.896327,0,0,0.896327,3.31753,10.5006)">
            <path d="M21.753,41.244C21.346,40.715 20.891,40.225 20.392,39.782C20.182,39.592 20.063,39.322 20.063,39.04C20.063,38.491 20.514,38.04 21.063,38.04C21.305,38.04 21.539,38.128 21.722,38.287C22.315,38.815 22.857,39.398 23.341,40.028C23.471,40.201 23.542,40.412 23.542,40.629C23.542,41.178 23.09,41.629 22.541,41.629C22.234,41.629 21.942,41.487 21.753,41.244Z" style="fill-rule:nonzero;"/>
        </g>
        <g transform="matrix(0.896327,0,0,0.896327,3.31753,10.5006)">
            <path d="M20.389,54.086C23.314,51.613 24.438,47.583 23.216,43.953C23.18,43.848 23.161,43.738 23.161,43.627C23.161,43.079 23.613,42.627 24.161,42.627C24.587,42.627 24.968,42.899 25.106,43.301C26.6,47.691 25.253,52.574 21.721,55.578C21.538,55.74 21.302,55.829 21.059,55.829C20.51,55.829 20.058,55.378 20.058,54.829C20.058,54.546 20.179,54.276 20.389,54.086Z" style="fill-rule:nonzero;"/>
        </g>
        <g transform="matrix(0.896327,0,0,0.896327,3.31753,10.5006)">
            <path d="M17.66,50.984C18.821,50.011 19.492,48.572 19.492,47.058C19.492,45.545 18.822,44.108 17.663,43.135C17.455,42.946 17.336,42.677 17.336,42.395C17.336,41.846 17.787,41.395 18.336,41.395C18.578,41.395 18.813,41.483 18.995,41.643C20.579,42.995 21.492,44.976 21.492,47.058C21.492,49.142 20.578,51.124 18.992,52.476C18.81,52.636 18.575,52.724 18.333,52.724C17.784,52.724 17.332,52.273 17.332,51.724C17.332,51.442 17.452,51.173 17.66,50.984Z" style="fill-rule:nonzero;"/>
        </g>
    </g>
</svg>
