<?xml version="1.0" encoding="UTF-8" standalone="no"?>
<!DOCTYPE svg PUBLIC "-//W3C//DTD SVG 1.1//EN" "http://www.w3.org/Graphics/SVG/1.1/DTD/svg11.dtd">
<svg width="100%" height="100%" viewBox="0 0 50 50" version="1.1" xmlns="http://www.w3.org/2000/svg" xmlns:xlink="http://www.w3.org/1999/xlink" xml:space="preserve" xmlns:serif="http://www.serif.com/" style="fill-rule:evenodd;clip-rule:evenodd;stroke-linejoin:round;stroke-miterlimit:2;">
    <g transform="matrix(0.573394,0,0,0.573394,-3.66972,-3.72706)">
        <path d="M90.9,19.1L57.4,19.1C56,19.1 54.8,20.2 54.8,21.7L54.8,31.5C54.8,33.1 56.3,34.1 57.6,34C60.6,33.8 62.4,35.1 63,37C64.3,40.7 60.8,43.8 57.8,43C56.2,42.6 54.7,43.7 54.7,45.3L54.7,54.8L45.2,54.8C43.6,54.8 42.4,56.3 42.9,57.9C43.7,60.9 40.6,64.3 36.9,63.1C35.2,62.5 33.9,60.9 33.9,58.7C33.9,57.7 34.1,57 33.5,56.2C33,55.4 32.3,54.9 31.4,54.9L21.6,54.9C20.2,54.9 19,56 19,57.5L19,91.1C19,92.5 20.1,93.7 21.6,93.7C23.5,93.7 91.9,93.7 90.9,93.7C92.3,93.7 93.5,92.6 93.5,91.1L93.5,21.8C93.5,20.2 92.4,19.1 90.9,19.1ZM66.3,38.5C66.3,34.6 63.3,30.8 57.8,30.9L57.8,22L90.5,22L90.5,54.7L82,54.7C81.3,51.1 78.1,48.4 74.2,48.4C70.3,48.4 67.1,51.1 66.4,54.7L57.8,54.7L57.8,46C61.8,46.7 66.3,43.3 66.3,38.5ZM55.5,79.1C53.2,78.7 51.5,76.7 51.5,74.2C51.5,71.7 53.2,69.7 55.5,69.3C56.8,69.1 57.8,67.9 57.8,66.6L57.8,57.8L66.6,57.8C68,57.8 69.1,56.8 69.3,55.5C69.7,53.2 71.7,51.5 74.2,51.5C76.7,51.5 78.7,53.2 79.1,55.5C79.3,56.8 80.4,57.8 81.8,57.8L90.5,57.8L90.5,90.5L57.8,90.5L57.8,81.8C57.8,80.5 56.8,79.3 55.5,79.1ZM38.5,66.3C43.3,66.3 46.7,61.8 46,57.8L54.8,57.8L54.8,66.4C51.2,67.1 48.5,70.3 48.5,74.2C48.5,78.1 51.2,81.3 54.8,82L54.8,90.5L22.1,90.5L22.1,57.8L31,57.8C30.8,63.2 34.5,66.3 38.5,66.3Z" style="fill-rule:nonzero;"/>
    </g>
    <g transform="matrix(0.573394,0,0,0.573394,-3.66972,-3.72706)">
        <path d="M18,45.2C18.7,48.8 21.9,51.5 25.8,51.5C29.7,51.5 32.9,48.8 33.6,45.2L42.7,45.2C44.1,45.2 45.3,44.1 45.3,42.6L45.3,33.5C48.9,32.8 51.6,29.6 51.6,25.7C51.6,21.8 48.9,18.6 45.3,17.9L45.3,9.1C45.3,7.7 44.2,6.5 42.7,6.5L9.1,6.5C7.7,6.5 6.5,7.6 6.5,9.1L6.5,42.7C6.5,44.1 7.6,45.3 9.1,45.3L18,45.2ZM48.5,25.8C48.5,28.3 46.8,30.3 44.5,30.7C43.2,30.9 42.2,32.1 42.2,33.4L42.2,42.2L33.4,42.2C32,42.2 30.9,43.2 30.7,44.5C30.3,46.8 28.3,48.5 25.8,48.5C23.3,48.5 21.3,46.8 20.9,44.5C20.7,43.2 19.6,42.2 18.2,42.2L9.5,42.2L9.5,9.5L42.2,9.5L42.2,18.2C42.2,19.6 43.2,20.7 44.5,20.9C46.8,21.2 48.5,23.3 48.5,25.8Z" style="fill-rule:nonzero;"/>
    </g>
</svg>
