<?xml version="1.0" encoding="UTF-8" standalone="no"?>
<!DOCTYPE svg PUBLIC "-//W3C//DTD SVG 1.1//EN" "http://www.w3.org/Graphics/SVG/1.1/DTD/svg11.dtd">
<svg width="100%" height="100%" viewBox="0 0 50 50" version="1.1" xmlns="http://www.w3.org/2000/svg" xmlns:xlink="http://www.w3.org/1999/xlink" xml:space="preserve" xmlns:serif="http://www.serif.com/" style="fill-rule:evenodd;clip-rule:evenodd;stroke-linejoin:round;stroke-miterlimit:2;">
    <g transform="matrix(0.390607,0,0,0.390607,15.2337,21.4834)">
        <g transform="matrix(1,0,0,1,-39,-55)">
            <path d="M18,42C27.925,42 36,34.374 36,25C36,16.095 21.058,2.095 19.354,0.529C18.593,-0.171 17.407,-0.171 16.646,0.529C14.942,2.095 0,16.095 0,25C0,34.374 8.075,42 18,42ZM18,4.755C22.883,9.5 32,19.49 32,25C32,32.168 25.72,38 18,38C10.28,38 4,32.168 4,25C4,19.5 13.118,9.5 18,4.755Z" style="fill-rule:nonzero;"/>
        </g>
        <g transform="matrix(1,0,0,1,-39,-55)">
            <path d="M76.39,3.073C75.33,1.179 73.323,0.002 71.153,0L56.846,0C54.675,0.001 52.668,1.179 51.608,3.073L44.343,16.073C43.32,17.888 43.32,20.112 44.343,21.927L51.608,34.927C52.668,36.821 54.675,37.999 56.846,38L71.153,38C73.323,37.998 75.33,36.821 76.39,34.927L83.655,21.927C84.677,20.112 84.677,17.888 83.655,16.073L76.39,3.073ZM80.162,19.973L72.897,32.973C72.545,33.605 71.876,33.999 71.153,34L56.846,34C56.122,34 55.453,33.608 55.1,32.976L47.835,19.976C47.494,19.371 47.494,18.63 47.835,18.025L55.099,5.025C55.452,4.393 56.122,4 56.846,4L71.153,4C71.877,4 72.547,4.393 72.9,5.025L80.165,18.025C80.506,18.63 80.505,19.372 80.163,19.976L80.162,19.973Z" style="fill-rule:nonzero;"/>
        </g>
        <g transform="matrix(1,0,0,1,-39,-55)">
            <path d="M122.539,54.335L117.7,53.6C116.911,53.47 116.238,52.955 115.906,52.228L113.744,47.678C112.716,45.439 110.468,43.997 108.004,43.997C105.54,43.997 103.292,45.439 102.264,47.678L100.1,52.233C99.766,52.96 99.09,53.473 98.3,53.6L93.456,54.331C91.067,54.703 89.085,56.398 88.347,58.7C87.543,61.068 88.145,63.697 89.9,65.478L93.412,69.036C94,69.643 94.264,70.496 94.121,71.329L93.3,76.346C92.866,78.836 93.906,81.365 95.966,82.829C97.913,84.225 100.501,84.378 102.599,83.221L106.919,80.861C107.593,80.49 108.413,80.49 109.087,80.861L113.407,83.221C115.505,84.377 118.092,84.224 120.04,82.829C122.1,81.364 123.14,78.835 122.706,76.345L121.878,71.329C121.735,70.496 121.998,69.642 122.586,69.035L126.1,65.477C127.856,63.696 128.459,61.066 127.656,58.698C126.915,56.396 124.929,54.703 122.539,54.335ZM123.249,62.667L119.735,66.225C118.25,67.744 117.577,69.885 117.926,71.981L118.755,77C118.943,77.983 118.537,78.99 117.721,79.57C117.021,80.086 116.078,80.143 115.321,79.715L111,77.351C109.134,76.326 106.866,76.326 105,77.351L100.68,79.711C99.923,80.14 98.98,80.083 98.28,79.566C97.464,78.988 97.059,77.983 97.244,77L98.072,71.982C98.421,69.886 97.748,67.746 96.262,66.227L92.75,62.669C92.046,61.959 91.809,60.904 92.143,59.962C92.408,59.086 93.153,58.436 94.057,58.292L98.901,57.561C101.004,57.234 102.81,55.878 103.711,53.951L105.873,49.399C106.24,48.553 107.078,48.002 108,48.002C108.922,48.002 109.76,48.553 110.127,49.399L112.289,53.949C113.19,55.877 114.996,57.233 117.099,57.56L121.943,58.291C122.847,58.435 123.592,59.085 123.857,59.961C124.189,60.903 123.953,61.957 123.249,62.667Z" style="fill-rule:nonzero;"/>
        </g>
        <g transform="matrix(1,0,0,1,-39,-55)">
            <path d="M14,84L24,84C31.677,83.991 37.991,77.677 38,70L38,60C37.991,52.323 31.677,46.009 24,46L14,46C6.323,46.009 0.009,52.323 0,60L0,70C0.009,77.677 6.323,83.991 14,84ZM4,60C4.006,54.516 8.516,50.006 14,50L24,50C29.484,50.006 33.994,54.516 34,60L34,70C33.994,75.484 29.484,79.994 24,80L14,80C8.516,79.994 4.006,75.484 4,70L4,60Z" style="fill-rule:nonzero;"/>
        </g>
        <g transform="matrix(1,0,0,1,-39,-55)">
            <path d="M90,38L126,38C126,38 126,38 126.001,38C127.098,38 128.001,37.097 128.001,36C128.001,35.674 127.921,35.352 127.768,35.064L109.768,1.064C109.422,0.41 108.74,-0 108.001,-0C107.261,-0 106.579,0.41 106.233,1.064L88.233,35.064C88.08,35.352 88,35.674 88,36C88,37.097 88.903,38 90,38ZM108,6.275L122.677,34L93.322,34L108,6.275Z" style="fill-rule:nonzero;"/>
        </g>
        <g transform="matrix(1,0,0,1,-39,-55)">
            <path d="M109.789,89.106C109.451,88.429 108.756,88 108,88C107.244,88 106.549,88.429 106.211,89.106L88.211,125.106C88.072,125.384 88,125.69 88,126C88,127.097 88.903,128 90,128C90.279,128 90.556,127.941 90.811,127.828L108,120.189L125.187,127.828C125.442,127.941 125.719,128 125.998,128C127.095,128 127.998,127.097 127.998,126C127.998,125.69 127.926,125.384 127.787,125.106L109.789,89.106ZM108.812,116.173C108.295,115.943 107.704,115.943 107.187,116.173L94.282,121.908L108,94.472L121.718,121.909L108.812,116.173Z" style="fill-rule:nonzero;"/>
        </g>
        <g transform="matrix(1,0,0,1,-39,-55)">
            <path d="M63,82C73.423,82 82,73.423 82,63C82,52.577 73.423,44 63,44C52.577,44 44,52.577 44,63C44.012,73.419 52.581,81.988 63,82ZM63,48C71.229,48 78,54.771 78,63C78,71.229 71.229,78 63,78C54.771,78 48,71.229 48,63C48.009,54.775 54.775,48.009 63,48Z" style="fill-rule:nonzero;"/>
        </g>
        <g transform="matrix(1,0,0,1,-39,-55)">
            <path d="M38.3,101.774L26.917,100.036L21.81,89.151C21.481,88.45 20.774,88.001 19.999,88.001C19.225,88.001 18.518,88.45 18.189,89.151L13.08,100.036L1.7,101.774C0.728,101.923 0.002,102.767 0.002,103.751C0.002,104.273 0.206,104.775 0.571,105.148L8.871,113.648L6.9,125.678C6.883,125.784 6.874,125.892 6.874,126C6.874,127.097 7.777,128 8.874,128C9.213,128 9.546,127.914 9.842,127.75L20,122.136L30.157,127.75C30.453,127.914 30.786,128 31.125,128C32.222,128 33.125,127.097 33.125,126C33.125,125.892 33.116,125.784 33.099,125.678L31.137,113.649L39.437,105.149C39.802,104.776 40.006,104.274 40.006,103.752C40.006,102.768 39.28,101.924 38.308,101.775L38.3,101.774ZM27.566,111.574C27.123,112.028 26.922,112.667 27.024,113.293L28.486,122.253L20.966,118.097C20.364,117.764 19.632,117.764 19.03,118.097L11.51,122.253L12.972,113.293C13.074,112.667 12.873,112.028 12.43,111.574L6.15,105.14L14.74,103.828C15.399,103.727 15.965,103.303 16.248,102.7L20,94.707L23.752,102.7C24.035,103.303 24.601,103.727 25.26,103.828L33.85,105.14L27.566,111.574Z" style="fill-rule:nonzero;"/>
        </g>
        <g transform="matrix(1,0,0,1,-39,-55)">
            <path d="M82,90L48,90C46.903,90 46,90.903 46,92L46,126C46,127.097 46.903,128 48,128L82,128C83.097,128 84,127.097 84,126L84,92C84,90.903 83.097,90 82,90ZM80,124L50,124L50,94L80,94L80,124Z" style="fill-rule:nonzero;"/>
        </g>
    </g>
</svg>
